<?xml version="1.0" encoding="UTF-8" standalone="no"?>
<!-- Generator: Adobe Illustrator 19.0.0, SVG Export Plug-In . SVG Version: 6.00 Build 0)  -->

<svg
   xmlns:dc="http://purl.org/dc/elements/1.1/"
   xmlns:cc="http://creativecommons.org/ns#"
   xmlns:rdf="http://www.w3.org/1999/02/22-rdf-syntax-ns#"
   xmlns:svg="http://www.w3.org/2000/svg"
   xmlns="http://www.w3.org/2000/svg"
   xmlns:xlink="http://www.w3.org/1999/xlink"
   xmlns:sodipodi="http://sodipodi.sourceforge.net/DTD/sodipodi-0.dtd"
   xmlns:inkscape="http://www.inkscape.org/namespaces/inkscape"
   version="1.1"
   id="Capa_1"
   x="0px"
   y="0px"
   viewBox="0 0 24.000001 24.000001"
   xml:space="preserve"
   sodipodi:docname="console-color.svg"
   width="24"
   height="24"
   inkscape:version="0.92.2 (unknown)"><metadata
     id="metadata73"><rdf:RDF><cc:Work
         rdf:about=""><dc:format>image/svg+xml</dc:format><dc:type
           rdf:resource="http://purl.org/dc/dcmitype/StillImage" /><dc:title /></cc:Work></rdf:RDF></metadata><defs
     id="defs71"><linearGradient
       id="linearGradient928"
       inkscape:collect="always"><stop
         id="stop924"
         offset="0"
         style="stop-color:#fd7171;stop-opacity:1;" /><stop
         id="stop926"
         offset="1"
         style="stop-color:#ff6fa9;stop-opacity:1" /></linearGradient><linearGradient
       inkscape:collect="always"
       id="linearGradient918"><stop
         style="stop-color:#fd7171;stop-opacity:1;"
         offset="0"
         id="stop914" /><stop
         style="stop-color:#ff6f6f;stop-opacity:1"
         offset="1"
         id="stop916" /></linearGradient><linearGradient
       inkscape:collect="always"
       xlink:href="#linearGradient4543"
       id="linearGradient866"
       x1="-2.2784035"
       y1="160.54605"
       x2="368.62955"
       y2="250.53873"
       gradientUnits="userSpaceOnUse" /><linearGradient
       inkscape:collect="always"
       id="linearGradient4543"><stop
         style="stop-color:#75acff;stop-opacity:1;"
         offset="0"
         id="stop4539" /><stop
         style="stop-color:#75fff8;stop-opacity:1"
         offset="1"
         id="stop4541" /></linearGradient><linearGradient
       inkscape:collect="always"
       xlink:href="#linearGradient918"
       id="linearGradient920"
       x1="296.25916"
       y1="-13.809077"
       x2="300.53079"
       y2="-13.809077"
       gradientUnits="userSpaceOnUse" /><linearGradient
       inkscape:collect="always"
       xlink:href="#linearGradient928"
       id="linearGradient922"
       gradientUnits="userSpaceOnUse"
       x1="32.332334"
       y1="139.381"
       x2="139.61367"
       y2="139.381" /></defs><sodipodi:namedview
     pagecolor="#ffffff"
     bordercolor="#666666"
     borderopacity="1"
     objecttolerance="10"
     gridtolerance="10"
     guidetolerance="10"
     inkscape:pageopacity="0"
     inkscape:pageshadow="2"
     inkscape:window-width="1920"
     inkscape:window-height="1053"
     id="namedview69"
     showgrid="false"
     inkscape:zoom="6.0442365"
     inkscape:cx="-10.505128"
     inkscape:cy="-7.1021824"
     inkscape:window-x="0"
     inkscape:window-y="0"
     inkscape:window-maximized="1"
     inkscape:current-layer="Capa_1" /><g
     id="g6"
     transform="matrix(0.07117387,0,0,0.07117387,0.57310625,-3.5661768)"
     style="stroke:#000000;stroke-width:7.85781527;stroke-miterlimit:4;stroke-dasharray:none;stroke-opacity:1"><g
       id="g4"
       style="stroke:#000000;stroke-width:7.85781527;stroke-miterlimit:4;stroke-dasharray:none;stroke-opacity:1"><path
         d="M 312.38575,197.9897 C 311.62857,180.9508 308.5999,162.05984 304.05687,144.28011 299.51385,127.2412 293.83508,111.31353 287.02054,99.089969 260.51958,53.529418 231.74711,60.567227 197.29586,69.45709 c -10.97897,2.592877 -22.71511,5.556165 -34.82984,6.667398 h -3.78585 C 146.56544,75.013255 134.8293,72.049967 123.85034,69.45709 89.399083,60.937638 60.626612,53.529418 34.12565,99.46038 c -6.814534,12.22356 -12.871897,28.15123 -17.036332,45.19014 -4.543023,17.77973 -7.5717042,36.67069 -8.3288745,53.70959 -0.7571704,18.89096 1.1357555,32.59617 5.3001925,42.22685 4.164436,8.88987 10.221799,14.44603 18.172088,16.6685 7.193118,1.85205 15.521991,1.11123 24.229451,-2.59288 14.764821,-5.92657 31.801153,-18.52055 48.458905,-33.7074 11.73614,-11.11233 33.69407,-16.66849 55.65201,-16.66849 21.95795,0 43.91588,5.55616 55.65203,16.66849 16.65774,15.18685 33.69407,27.78083 48.45889,33.7074 8.70746,3.3337 17.03634,4.44493 24.22945,2.59288 7.57171,-2.22247 14.00766,-7.40822 18.17209,-17.03891 4.16444,-9.26027 6.05737,-22.96548 5.3002,-42.22685 z"
         id="path2"
         inkscape:connector-curvature="0"
         style="fill:url(#linearGradient866);fill-opacity:1;stroke:#000000;stroke-width:21.7355049;stroke-miterlimit:4;stroke-dasharray:none;stroke-opacity:1"
         sodipodi:nodetypes="ccccccccccccccsccccc" /></g></g><g
     id="g12"
     transform="matrix(0.06846841,0,0,0.06846841,1.0075325,-3.131779)"
     style="stroke:#000000;stroke-width:18.08133123;stroke-miterlimit:4;stroke-dasharray:none;stroke-opacity:1;fill:url(#linearGradient920);fill-opacity:1"><g
       id="g10"
       style="stroke:#000000;stroke-width:18.08133123;stroke-miterlimit:4;stroke-dasharray:none;stroke-opacity:1;fill:url(#linearGradient920);fill-opacity:1.0"><path
         d="m 123.773,122.981 c -4,-3.6 -8.8,-6.4 -14.4,-6.8 -0.4,-5.2 -2.8,-10.4 -6.4,-14 l -0.4,-0.4 c -4.4,-4.4 -10,-6.8 -16.4,-6.8 -6.4,0 -12.4,2.8 -16.4,6.8 -3.6,3.6 -6.4,8.8 -6.8,14.4 -5.6,0.4 -10.4,2.8 -14.4,6.4 l -0.4,0.4 c -4.4,4.4 -6.8,10 -6.8,16.4 0,6.4 2.8,12.4 6.8,16.4 4,4 8.8,6.4 14.8,6.8 0.4,5.6 2.8,10.8 6.8,14.4 4.4,4.4 10,6.8 16.4,6.8 6.4,0 12.4,-2.8 16.4,-6.8 3.6,-4 6.4,-8.8 6.8,-14.4 5.6,-0.4 10.8,-2.8 14.4,-6.8 4.4,-4.4 6.8,-10 6.8,-16.4 0,-6.4 -2.8,-12.4 -6.8,-16.4 z"
         id="path8"
         inkscape:connector-curvature="0"
         style="fill:url(#linearGradient922);fill-opacity:1;stroke:#000000;stroke-width:18.08133123;stroke-miterlimit:4;stroke-dasharray:none;stroke-opacity:1"
         sodipodi:nodetypes="ccssssccsssccscccsc" /></g></g><g
     id="g18"
     transform="matrix(0.06846841,0,0,0.06846841,1.0075325,-3.131779)"
     style="stroke:#000000;stroke-width:7.85781527;stroke-miterlimit:4;stroke-dasharray:none;stroke-opacity:1"><g
       id="g16"
       style="stroke:#000000;stroke-width:7.85781527;stroke-miterlimit:4;stroke-dasharray:none;stroke-opacity:1"><circle
         cx="230.173"
         cy="110.981"
         r="14"
         id="circle14"
         style="stroke:#000000;stroke-width:7.85781527;stroke-miterlimit:4;stroke-dasharray:none;stroke-opacity:1" /></g></g><g
     id="g24"
     transform="matrix(0.06846841,0,0,0.06846841,1.0075325,-3.131779)"
     style="stroke:#000000;stroke-width:7.85781527;stroke-miterlimit:4;stroke-dasharray:none;stroke-opacity:1"><g
       id="g22"
       style="stroke:#000000;stroke-width:7.85781527;stroke-miterlimit:4;stroke-dasharray:none;stroke-opacity:1"><circle
         cx="230.173"
         cy="167.78101"
         r="14"
         id="circle20"
         style="stroke:#000000;stroke-width:7.85781527;stroke-miterlimit:4;stroke-dasharray:none;stroke-opacity:1" /></g></g><g
     id="g30"
     transform="matrix(0.06846841,0,0,0.06846841,1.0075325,-3.131779)"
     style="stroke:#000000;stroke-width:7.85781527;stroke-miterlimit:4;stroke-dasharray:none;stroke-opacity:1"><g
       id="g28"
       style="stroke:#000000;stroke-width:7.85781527;stroke-miterlimit:4;stroke-dasharray:none;stroke-opacity:1"><circle
         cx="201.77299"
         cy="139.381"
         r="14"
         id="circle26"
         style="stroke:#000000;stroke-width:7.85781527;stroke-miterlimit:4;stroke-dasharray:none;stroke-opacity:1" /></g></g><g
     id="g36"
     transform="matrix(0.06846841,0,0,0.06846841,1.0075325,-3.131779)"
     style="stroke:#000000;stroke-width:7.85781527;stroke-miterlimit:4;stroke-dasharray:none;stroke-opacity:1"><g
       id="g34"
       style="stroke:#000000;stroke-width:7.85781527;stroke-miterlimit:4;stroke-dasharray:none;stroke-opacity:1"><circle
         cx="258.573"
         cy="139.381"
         r="14"
         id="circle32"
         style="stroke:#000000;stroke-width:7.85781527;stroke-miterlimit:4;stroke-dasharray:none;stroke-opacity:1" /></g></g><g
     id="g38"
     transform="translate(0,-297.14499)"
     style="stroke-width:0.5;stroke-miterlimit:4;stroke-dasharray:none;stroke:#000000;stroke-opacity:1" /><g
     id="g40"
     transform="translate(0,-297.14499)"
     style="stroke-width:0.5;stroke-miterlimit:4;stroke-dasharray:none;stroke:#000000;stroke-opacity:1" /><g
     id="g42"
     transform="translate(0,-297.14499)"
     style="stroke-width:0.5;stroke-miterlimit:4;stroke-dasharray:none;stroke:#000000;stroke-opacity:1" /><g
     id="g44"
     transform="translate(0,-297.14499)"
     style="stroke-width:0.5;stroke-miterlimit:4;stroke-dasharray:none;stroke:#000000;stroke-opacity:1" /><g
     id="g46"
     transform="translate(0,-297.14499)"
     style="stroke-width:0.5;stroke-miterlimit:4;stroke-dasharray:none;stroke:#000000;stroke-opacity:1" /><g
     id="g48"
     transform="translate(0,-297.14499)"
     style="stroke-width:0.5;stroke-miterlimit:4;stroke-dasharray:none;stroke:#000000;stroke-opacity:1" /><g
     id="g50"
     transform="translate(0,-297.14499)"
     style="stroke-width:0.5;stroke-miterlimit:4;stroke-dasharray:none;stroke:#000000;stroke-opacity:1" /><g
     id="g52"
     transform="translate(0,-297.14499)"
     style="stroke-width:0.5;stroke-miterlimit:4;stroke-dasharray:none;stroke:#000000;stroke-opacity:1" /><g
     id="g54"
     transform="translate(0,-297.14499)"
     style="stroke-width:0.5;stroke-miterlimit:4;stroke-dasharray:none;stroke:#000000;stroke-opacity:1" /><g
     id="g56"
     transform="translate(0,-297.14499)"
     style="stroke-width:0.5;stroke-miterlimit:4;stroke-dasharray:none;stroke:#000000;stroke-opacity:1" /><g
     id="g58"
     transform="translate(0,-297.14499)"
     style="stroke-width:0.5;stroke-miterlimit:4;stroke-dasharray:none;stroke:#000000;stroke-opacity:1" /><g
     id="g60"
     transform="translate(0,-297.14499)"
     style="stroke-width:0.5;stroke-miterlimit:4;stroke-dasharray:none;stroke:#000000;stroke-opacity:1" /><g
     id="g62"
     transform="translate(0,-297.14499)"
     style="stroke-width:0.5;stroke-miterlimit:4;stroke-dasharray:none;stroke:#000000;stroke-opacity:1" /><g
     id="g64"
     transform="translate(0,-297.14499)"
     style="stroke-width:0.5;stroke-miterlimit:4;stroke-dasharray:none;stroke:#000000;stroke-opacity:1" /><g
     id="g66"
     transform="translate(0,-297.14499)"
     style="stroke-width:0.5;stroke-miterlimit:4;stroke-dasharray:none;stroke:#000000;stroke-opacity:1" /></svg>