<?xml version="1.0" encoding="UTF-8" standalone="no"?>
<svg
   xmlns:dc="http://purl.org/dc/elements/1.1/"
   xmlns:cc="http://creativecommons.org/ns#"
   xmlns:rdf="http://www.w3.org/1999/02/22-rdf-syntax-ns#"
   xmlns:svg="http://www.w3.org/2000/svg"
   xmlns="http://www.w3.org/2000/svg"
   xmlns:sodipodi="http://sodipodi.sourceforge.net/DTD/sodipodi-0.dtd"
   xmlns:inkscape="http://www.inkscape.org/namespaces/inkscape"
   width="82.179489"
   height="157.3273"
   viewBox="0 0 82.179489 157.3273"
   version="1.1"
   id="svg22"
   sodipodi:docname="logo-buildings.svg"
   inkscape:version="0.92.2 2405546, 2018-03-11">
  <metadata
     id="metadata28">
    <rdf:RDF>
      <cc:Work
         rdf:about="">
        <dc:format>image/svg+xml</dc:format>
        <dc:type
           rdf:resource="http://purl.org/dc/dcmitype/StillImage" />
        <dc:title></dc:title>
      </cc:Work>
    </rdf:RDF>
  </metadata>
  <defs
     id="defs26" />
  <sodipodi:namedview
     pagecolor="#ffffff"
     bordercolor="#666666"
     borderopacity="1"
     objecttolerance="10"
     gridtolerance="10"
     guidetolerance="10"
     inkscape:pageopacity="0"
     inkscape:pageshadow="2"
     inkscape:window-width="1920"
     inkscape:window-height="1053"
     id="namedview24"
     showgrid="false"
     inkscape:snap-bbox="true"
     inkscape:bbox-paths="true"
     inkscape:bbox-nodes="true"
     inkscape:snap-bbox-edge-midpoints="true"
     inkscape:snap-bbox-midpoints="true"
     inkscape:object-paths="true"
     inkscape:snap-intersection-paths="true"
     inkscape:snap-midpoints="true"
     inkscape:snap-smooth-nodes="true"
     inkscape:snap-object-midpoints="true"
     inkscape:snap-center="true"
     fit-margin-top="0"
     fit-margin-left="0"
     fit-margin-right="0"
     fit-margin-bottom="0"
     inkscape:zoom="13.9375"
     inkscape:cx="3.8616266"
     inkscape:cy="7.7598891"
     inkscape:window-x="0"
     inkscape:window-y="0"
     inkscape:window-maximized="1"
     inkscape:current-layer="g1836" />
  <g
     id="Canvas"
     style="fill:none"
     transform="translate(-0.3470091,0.53560622)">
    <g
       id="g1836">
      <g
         id="rect1385"
         transform="translate(3,26.9807)"
         style="stroke-width:5;stroke-miterlimit:4;stroke-dasharray:none">
        <path
           d="M 7.47471,1.54156 C 7.52616,0.675751 8.24238,0 9.10856,0 H 44.2219 c 0.8661,0 1.5824,0.675756 1.6338,1.54156 L 53.3304,127.311 H 0 Z"
           id="path2"
           inkscape:connector-curvature="0"
           style="fill:#ffffff;stroke-width:5;stroke-miterlimit:4;stroke-dasharray:none" />
        <path
           d="M 53.3304,127.311 45.8557,1.54156 C 45.8043,0.675756 45.088,0 44.2219,0 H 9.10856 C 8.24238,0 7.52616,0.675751 7.47471,1.54156 L 0,127.311 Z"
           id="path4"
           inkscape:connector-curvature="0"
           style="stroke:#000000;stroke-width:5;stroke-miterlimit:4;stroke-dasharray:none" />
      </g>
      <g
         id="rect1387"
         transform="translate(44.6356,80.4128)"
         style="stroke-width:5;stroke-miterlimit:4;stroke-dasharray:none">
        <path
           d="M 33.7542,0 H 1.63674 C 0.732794,0 0,0.733773 0,1.63893 V 73.8789 H 35.3909 V 1.63892 C 35.3909,0.733772 34.6581,0 33.7542,0 Z"
           id="path7"
           inkscape:connector-curvature="0"
           style="fill:#ffffff;stroke-width:5;stroke-miterlimit:4;stroke-dasharray:none" />
        <path
           d="M 1.63674,0 H 33.7542 c 0.9039,0 1.6367,0.733772 1.6367,1.63892 V 73.8789 H 0 V 1.63893 C 0,0.733773 0.732794,0 1.63674,0 Z"
           id="path9"
           inkscape:connector-curvature="0"
           style="stroke:#000000;stroke-width:5;stroke-miterlimit:4;stroke-dasharray:none" />
      </g>
      <g
         id="rect1383"
         transform="translate(17.522793,109.5577)"
         style="stroke-width:5;stroke-miterlimit:4;stroke-dasharray:none">
        <path
           d="M 37.2933,0 H 1.63674 C 0.732793,0 0,0.733771 0,1.63892 V 43.0951 c 0,0.9051 0.732792,1.6389 1.63674,1.6389 H 37.2932 c 0.904,0 1.6368,-0.7338 1.6368,-1.6389 V 1.63892 C 38.93,0.733771 38.1972,0 37.2933,0 Z"
           id="path12"
           inkscape:connector-curvature="0"
           style="fill:#ffffff;stroke-width:5;stroke-miterlimit:4;stroke-dasharray:none" />
        <path
           d="M 1.63674,0 H 37.2933 C 38.1972,0 38.93,0.733771 38.93,1.63892 V 43.0951 c 0,0.9051 -0.7328,1.6389 -1.6368,1.6389 H 1.63674 C 0.732792,44.734 0,44.0002 0,43.0951 V 1.63892 C 0,0.733771 0.732793,0 1.63674,0 Z"
           id="path14"
           inkscape:connector-curvature="0"
           style="stroke:#000000;stroke-width:5;stroke-miterlimit:4;stroke-dasharray:none" />
      </g>
      <g
         id="g1396"
         transform="translate(-1.8348001)"
         style="stroke-width:5;stroke-miterlimit:4;stroke-dasharray:none">
        <line
           id="Line"
           x1="2"
           y1="-2"
           x2="25"
           y2="-2"
           transform="rotate(90,19,19)"
           stroke-miterlimit="16"
           style="stroke:#000000;stroke-width:5;stroke-linecap:round;stroke-miterlimit:4;stroke-dasharray:none" />
        <line
           id="Line_2"
           x1="2"
           y1="-2"
           x2="25"
           y2="-2"
           transform="rotate(90,10.5,10.5)"
           style="stroke:#000000;stroke-width:5;stroke-linecap:round;stroke-miterlimit:4;stroke-dasharray:none" />
      </g>
    </g>
  </g>
</svg>
